<svg id="Layer_1" data-name="Layer 1" xmlns="http://www.w3.org/2000/svg" viewBox="0 0 148.12 66.06"><defs><style>.cls-1{fill:#231f20;}</style></defs><path class="cls-1" d="M12.92,52.93Q0,52.93,0,38.54V5.62Q0,0,5.55,0T11,5.62V38.11a6.47,6.47,0,0,0,1.28,4.41A4.34,4.34,0,0,0,15.7,44a8.47,8.47,0,0,0,1.13-.08,9.59,9.59,0,0,1,1.06-.07,1.63,1.63,0,0,1,1.64.73A7.53,7.53,0,0,1,20,47.81c0,2.83-1.19,4.43-3.57,4.82l-1.68.19A16.91,16.91,0,0,1,12.92,52.93Z"/><path class="cls-1" d="M41.17,52.93a20.93,20.93,0,0,1-10-2.3,16.26,16.26,0,0,1-6.6-6.5,20.16,20.16,0,0,1-2.34-10,20,20,0,0,1,2.34-9.89,16,16,0,0,1,6.6-6.46,21.16,21.16,0,0,1,10-2.26,21.13,21.13,0,0,1,10,2.26,16.14,16.14,0,0,1,6.64,6.46,19.81,19.81,0,0,1,2.38,9.89,20,20,0,0,1-2.38,10,16.42,16.42,0,0,1-6.64,6.5A20.9,20.9,0,0,1,41.17,52.93Zm0-8.25a7.22,7.22,0,0,0,5.73-2.56q2.24-2.55,2.23-8T46.9,26.32a7.28,7.28,0,0,0-5.73-2.52,7.19,7.19,0,0,0-5.69,2.52q-2.19,2.52-2.19,7.84t2.19,8A7.13,7.13,0,0,0,41.17,44.68Z"/><path class="cls-1" d="M84.17,66.06a41.36,41.36,0,0,1-7.52-.65,27,27,0,0,1-6.42-2A4.48,4.48,0,0,1,67.52,61a4.25,4.25,0,0,1,0-3.14,4.43,4.43,0,0,1,2-2.3,3.23,3.23,0,0,1,3,0,23.64,23.64,0,0,0,6,1.9,30.85,30.85,0,0,0,4.71.44q9.34,0,9.34-8.62V45.11A10.67,10.67,0,0,1,88,49.57a14.3,14.3,0,0,1-6.86,1.68A15.57,15.57,0,0,1,72.71,49a14.79,14.79,0,0,1-5.55-6.24,21.22,21.22,0,0,1-2-9.42,21,21,0,0,1,2-9.34,14.79,14.79,0,0,1,5.55-6.24,15.49,15.49,0,0,1,8.39-2.23,14.3,14.3,0,0,1,6.79,1.61,10.65,10.65,0,0,1,4.53,4.23v-.15a5.57,5.57,0,0,1,1.42-4.12,5.48,5.48,0,0,1,4-1.42c3.6,0,5.4,1.84,5.4,5.54V48q0,9.06-4.89,13.58T84.17,66.06ZM84.39,43a7.38,7.38,0,0,0,5.87-2.56,10.38,10.38,0,0,0,2.23-7.08,10.24,10.24,0,0,0-2.23-7,8.15,8.15,0,0,0-11.79,0,10.38,10.38,0,0,0-2.19,7,10.52,10.52,0,0,0,2.19,7.08A7.39,7.39,0,0,0,84.39,43Z"/><path class="cls-1" d="M129.06,52.93a20.86,20.86,0,0,1-10-2.3,16.23,16.23,0,0,1-6.61-6.5,20.16,20.16,0,0,1-2.34-10,20,20,0,0,1,2.34-9.89A16,16,0,0,1,119,17.81a23.41,23.41,0,0,1,20.07,0,16.14,16.14,0,0,1,6.64,6.46,19.81,19.81,0,0,1,2.38,9.89,20,20,0,0,1-2.38,10,16.42,16.42,0,0,1-6.64,6.5A20.9,20.9,0,0,1,129.06,52.93Zm0-8.25a7.22,7.22,0,0,0,5.73-2.56q2.24-2.55,2.23-8t-2.23-7.84a7.28,7.28,0,0,0-5.73-2.52,7.19,7.19,0,0,0-5.69,2.52q-2.19,2.52-2.19,7.84t2.19,8A7.13,7.13,0,0,0,129.06,44.68Z"/></svg>